<svg xmlns="http://www.w3.org/2000/svg" viewBox="0 0 510.55 146.49"><defs><style>.cls-1{fill:#124d8c;}.cls-2{fill:gray;}.cls-3{fill:#fff;}.cls-4,.cls-5{fill:none;stroke:#124d8c;stroke-linecap:round;stroke-linejoin:round;stroke-width:3px;}.cls-5{stroke-dasharray:0 10.16;}</style></defs><g id="Layer_2" data-name="Layer 2"><g id="Banner"><path class="cls-1" d="M52.22,65.92l-13.36,0,0,9.67a9,9,0,0,1,3.32,1.34l0,5.79A36.44,36.44,0,0,0,30,80.57a25.86,25.86,0,0,0-8.81,1.5q-5.69,2-5.75,5.73-.11,3.93,11.1,4c.16,0,1.22,0,3.18-.14l2.94-.13,0,4.5q-6.66.18-8.32.31-11.7,1-11.72,6.72,0,3.18,4,5a16.52,16.52,0,0,0,6.84,1.45q15.92,0,25.79-14l0,12.38q-8.43,5.31-19.93,5.27-12.58,0-21.71-5.9-4.45-2.86-4.44-6.54a7.94,7.94,0,0,1,3.16-6.21,31.23,31.23,0,0,1,6.32-3.7L9.42,88.9a5,5,0,0,1-2.87-4.47q0-6.08,9.18-8.69a56.6,56.6,0,0,1,15.61-2l0-7.93L0,65.74l0-5.87L52.24,60Z"/><path class="cls-1" d="M108,66.1l-6.51,0-.16,47.86L92.4,110.1l0-7q-8,10.2-15.59,10.17-4.85,0-10.56-4.09a33.16,33.16,0,0,1-8.1-8.15c-2.53-3.66-3.78-7.23-3.73-10.68q.06-4.75,5.27-11,5.85-7,14.07-7,5.23,0,10.51,4.49,1.6,1.32,8.19,8.54l.06-19.33-41.89-.14,0-5.87,41.89.14q0-10.12-1.66-15.84-2.52-8.52-11.28-20.28c-.13-.06-.2-.32-.2-.78a.87.87,0,0,1,.3-.78l9.35,0q12.57,14,12.5,37.68l6.41,0ZM90.12,88.36q0-3.83-4.14-6.57a13.88,13.88,0,0,0-7.72-2.48c-2,0-4.41.9-7.35,2.72Q61.3,88,61.27,96.09a12.74,12.74,0,0,0,2.37,7.74,8.14,8.14,0,0,0,6.89,3.7q4.41,0,9.41-4a36.58,36.58,0,0,0,6.48-6.83Q90.11,91.74,90.12,88.36Z"/><path class="cls-1" d="M162,66.28l-41-.14-.11,31.41a17.68,17.68,0,0,0,1.3,6.47q2.67,6.83,8.89,6.84a14.05,14.05,0,0,0,12.74-7,19.17,19.17,0,0,0,3.41-10.12l.07-19.47,9.93,0-.13,41.7q-1.17-.69-4.36-2.12l-5.56-2.52v-3.91q-5.81,4.19-9.93,5.3a22.64,22.64,0,0,1-5.94.66q-10.89,0-17-9.6a17.26,17.26,0,0,1-2.76-9.52l.09-28.22-5.92,0,0-5.87,56.23.19Z"/><path class="cls-1" d="M317.39,65h-5.33v18.6a29.7,29.7,0,0,0-8.32-2.94,40.2,40.2,0,0,0-8.81-1.17q-9,0-15,3.18-3.42,1.82-3.42,4.75,0,3.91,4.11,3.91a20.28,20.28,0,0,0,6.51-1.46c1.73-.62,3.94-1.41,6.65-2.35a21,21,0,0,1,6.07-.59c5.65,0,9.85,1.74,12.63,5.24a9.12,9.12,0,0,1,2,5.87q0,7.78-9.78,12.23a22.38,22.38,0,0,1-7.74,2.11q3.52,3.52,6.71,3.52a9.38,9.38,0,0,0,2.2-.29l4.94,8.07q-1.51,1.32-6.21,1.32a8.85,8.85,0,0,1-6.46-2.59,31.72,31.72,0,0,1-4-5.92c-1.47-2.58-2.7-3.88-3.67-3.92q-9.06-.24-13.95-3.28a5.87,5.87,0,0,1-3.09-5.23c0-2.74,1.64-4.11,4.9-4.11,1.2,0,3.73.94,7.56,2.81s7,2.81,9.47,2.81a28.85,28.85,0,0,0,13.95-3.52q3.18-1.71,3.18-4.21,0-3.72-5.87-3.72-1.81,0-11.7,2.65a42.54,42.54,0,0,1-7.15,1.56q-7.77,0-12.82-7.34a13.07,13.07,0,0,1-2.45-7.59q0-8.26,11.31-11.15a35.52,35.52,0,0,1,8.76-1.18q4.7,0,13.31,2.3V65h-39V59.15h50.51Z"/><path class="cls-1" d="M364.72,65h-32.6V72.9a.57.57,0,0,1,.39.2.53.53,0,0,0,.35.19,1.07,1.07,0,0,1-.44,0q0-.25,7.29-1.57a29.36,29.36,0,0,1,5.33-.49q11,0,14.15,6.17,2.1,4.11,2.1,16.59v18.84q-1-.39-7.78-3.18c0-1-.21-1.71-.64-2q-2.6,1.52-4.26,2.3a28.34,28.34,0,0,1-12.28,2.5q-9.65,0-14.88-6.07a9.79,9.79,0,0,1-2.54-6.56q0-4.06,4-8.07a26.24,26.24,0,0,1,19.33-7.79q7,0,11.26,3.23v-4.5A12.17,12.17,0,0,0,349.32,79a12.62,12.62,0,0,0-5.55-.83A39,39,0,0,0,329.33,81c-2,.81-3.86,1.55-5.72,2.2V79.6L325.47,78l.24-.3V65h-10V59.15h49Zm-11.21,31q0-2.14-5.14-3.86a23.22,23.22,0,0,0-7.1-1.42q-10.32,0-16.54,7.43-2.49,3-2.49,4.9,1,3.57,8.07,3.57A31.6,31.6,0,0,0,347,102.12Q353.51,98.16,353.51,96.05Z"/><path class="cls-1" d="M463.28,65H423.79V79.8q5.32-5.82,9.88-7.48a16.64,16.64,0,0,1,5.73-.93q11.94,0,17.86,11.74a22.35,22.35,0,0,1,2.59,10.13q0,9.1-7.48,16.45a47.21,47.21,0,0,1-3.72,3.37l-8-4.79q3-3.18,6.9-7.83c2.91-3.5,4.37-7.9,4.41-13.22a13.39,13.39,0,0,0-2.16-7.93,7.79,7.79,0,0,0-7-3.62,17.73,17.73,0,0,0-9,3.18,26.64,26.64,0,0,0-7.14,6.56,13.31,13.31,0,0,0-3.09,7.93v19.43l-9.15-4.9V65H409V59.15h5.38q0-14.37-7.49-24.53-4.5-6.1-8.32-8.6l9.89-.1q8.22,4.5,13.07,19.4a44.77,44.77,0,0,1,2.3,13.83h39.49Z"/><path class="cls-1" d="M510.55,65H478V72.9a.57.57,0,0,1,.39.2.53.53,0,0,0,.35.19,1.07,1.07,0,0,1-.44,0c0-.17,2.42-.69,7.29-1.57a29.36,29.36,0,0,1,5.33-.49q11,0,14.14,6.17,2.12,4.11,2.11,16.59v29.2q-1-.39-7.78-3.18c0-1-.21-12.07-.64-12.37q-2.59,1.52-4.26,2.3a28.34,28.34,0,0,1-12.28,2.5q-9.65,0-14.88-6.07a9.79,9.79,0,0,1-2.54-6.56q0-4.06,4-8.07a26.24,26.24,0,0,1,19.33-7.79q7,0,11.26,3.23v-4.5A12.17,12.17,0,0,0,495.16,79a12.62,12.62,0,0,0-5.55-.83A39,39,0,0,0,475.17,81c-2,.81-3.86,1.55-5.72,2.2V79.6L471.31,78l.24-.3V65h-10V59.15h49Zm-11.2,31q0-2.14-5.14-3.86a23.28,23.28,0,0,0-7.1-1.42q-10.32,0-16.54,7.43-2.49,3-2.49,4.9,1,3.57,8.07,3.57a31.6,31.6,0,0,0,16.64-4.55Q499.35,98.16,499.35,96.05Z"/><path class="cls-2" d="M238.68,61h-5.39c-2.34,0-4.06,4-4.91,1.81-.47-1.19-.95.19-1.39-1a8,8,0,0,1,6.36-10.71,7.74,7.74,0,0,1,1.27-.08c2.71,0,5.43,0,8.14,0a8,8,0,0,1,8,6.41,7.71,7.71,0,0,1-.4,4.55c-.45,1.16-.89-.26-1.35.9-.82,2.08-2.6-1.86-4.83-1.86Z"/><path class="cls-2" d="M248.25,37.21a9.57,9.57,0,1,1-9.55-9.58A9.57,9.57,0,0,1,248.25,37.21Z"/><path class="cls-3" d="M242.74,59.61h-1.28a1,1,0,1,1,0-2H244a1,1,0,1,1,0,2Z"/><path class="cls-1" d="M192,54.56h-5.38a5,5,0,0,1-4.92-3.35c-.47-1.19-.94-2.39-1.38-3.6a8,8,0,0,1,6.36-10.7,8.93,8.93,0,0,1,1.27-.09H196a8,8,0,0,1,8,6.4,7.82,7.82,0,0,1-.4,4.56l-1.35,3.48a5,5,0,0,1-4.83,3.3Z"/><path class="cls-3" d="M196,45.43h-1.27a1,1,0,0,1-1-1,1,1,0,0,1,1-1c.85,0,1.7,0,2.55,0a1,1,0,0,1,1,1,1,1,0,0,1-1,1Z"/><circle class="cls-1" cx="193.33" cy="23.78" r="9.57"/><path class="cls-1" d="M208.85,18.93l.48-11.28L179,6.36l-.48,11.28S191.06,24.77,208.85,18.93Z"/><polygon class="cls-1" points="172.38 4.81 194 10.13 215.99 6.6 193.49 0.13 172.38 4.81"/><path class="cls-3" d="M194,10.26l-.12,0L171.68,4.77,193.49,0l23.23,6.62ZM173.08,4.84,194,10l21.27-3.4L193.49.26Z"/><rect class="cls-3" x="170.6" y="23.1" width="30.16" height="0.31" transform="translate(154.56 207.79) rotate(-87.57)"/><path class="cls-1" d="M184.23,38.37a.81.81,0,1,0,.84-.78A.82.82,0,0,0,184.23,38.37Z"/><rect class="cls-1" x="182.84" y="42.01" width="5.73" height="0.31" transform="translate(135.69 225.92) rotate(-87.57)"/><rect class="cls-1" x="182.47" y="41.91" width="4.82" height="0.31" transform="translate(135 225) rotate(-87.57)"/><rect class="cls-1" x="181.74" y="41.41" width="4.67" height="0.32" transform="translate(134.74 223.72) rotate(-87.57)"/><path class="cls-1" d="M204.21,76.83l.13-31.19-24.64-.08-.13,31.92c-.07,21.54,12.59,34.14,34.31,34.65v-20C207.85,91.55,204.17,87.2,204.21,76.83Z"/><path class="cls-2" d="M226.67,60.7l-.13,16.21c0,10.24-3.65,14.59-9.56,15.22v20c21.26-.64,33.71-13.12,33.78-34.4l.13-16.94Z"/><path class="cls-1" d="M7.27,143.16h5.51v1.67H5.21V129.1H7.27Z"/><path class="cls-1" d="M19.73,130.77V136h5.73v1.69H19.73v5.42h6.41v1.69H17.67V129.08h8.47v1.69Z"/><path class="cls-1" d="M41.64,129.1v1.67H37.35v14.06H35.3V130.77H31V129.1Z"/><path class="cls-1" d="M47.19,129.1h2.28l-2.16,5.12H45.86Z"/><path class="cls-1" d="M56.73,144.43a4.71,4.71,0,0,1-1.93-1.53,3.88,3.88,0,0,1-.72-2.27h2.19a2.85,2.85,0,0,0,.91,1.86,3.25,3.25,0,0,0,2.34.76,3.46,3.46,0,0,0,2.31-.73,2.41,2.41,0,0,0,.85-1.89,2.16,2.16,0,0,0-.5-1.47,3.2,3.2,0,0,0-1.24-.85,19.63,19.63,0,0,0-2-.64,17.38,17.38,0,0,1-2.49-.81,4,4,0,0,1-1.61-1.27,3.78,3.78,0,0,1-.66-2.34,4.09,4.09,0,0,1,.65-2.28,4.28,4.28,0,0,1,1.84-1.53,6.51,6.51,0,0,1,2.72-.55A5.66,5.66,0,0,1,63,130a4.1,4.1,0,0,1,1.59,2.93H62.34a2.45,2.45,0,0,0-1-1.59,3.36,3.36,0,0,0-2.21-.68,3.22,3.22,0,0,0-2.1.66,2.28,2.28,0,0,0-.81,1.86,2,2,0,0,0,.48,1.4,3.12,3.12,0,0,0,1.2.83c.47.18,1.14.4,2,.64a19.28,19.28,0,0,1,2.5.85,4.17,4.17,0,0,1,1.63,1.28,3.76,3.76,0,0,1,.67,2.36,4.12,4.12,0,0,1-.61,2.17,4.5,4.5,0,0,1-1.8,1.64,5.87,5.87,0,0,1-2.82.64A6.71,6.71,0,0,1,56.73,144.43Z"/><path class="cls-1" d="M88.66,137.43a4,4,0,0,1,1.13,1.4,4,4,0,0,1-.19,3.93,4.21,4.21,0,0,1-1.77,1.52,6.47,6.47,0,0,1-2.74.55H79.22V129.1h5.64a6.27,6.27,0,0,1,2.73.53,3.82,3.82,0,0,1,1.69,1.43,3.72,3.72,0,0,1,.57,2,3.49,3.49,0,0,1-.76,2.32,4.21,4.21,0,0,1-2,1.32A3.25,3.25,0,0,1,88.66,137.43Zm-7.39-1.54h3.46a3.29,3.29,0,0,0,2.23-.68,2.61,2.61,0,0,0,0-3.74,3.43,3.43,0,0,0-2.28-.68H81.27Zm6,6.52a2.48,2.48,0,0,0,.86-2,2.53,2.53,0,0,0-.91-2.07,3.64,3.64,0,0,0-2.41-.76H81.27v5.56h3.64A3.56,3.56,0,0,0,87.3,142.41Z"/><path class="cls-1" d="M104.05,144.83l-3.75-6.43H97.82v6.43H95.76V129.1h5.08a6.67,6.67,0,0,1,3,.61,4.17,4.17,0,0,1,1.84,1.64,4.6,4.6,0,0,1,.61,2.37,4.65,4.65,0,0,1-.93,2.87,4.61,4.61,0,0,1-2.81,1.65l4,6.59Zm-6.23-8.08h3a3.49,3.49,0,0,0,2.51-.82,3,3,0,0,0,.83-2.21,2.8,2.8,0,0,0-.82-2.16,3.6,3.6,0,0,0-2.52-.77h-3Z"/><path class="cls-1" d="M114.25,129.1v15.73h-2.06V129.1Z"/><path class="cls-1" d="M129.81,130.06a6.77,6.77,0,0,1,2.89,2.74,8.42,8.42,0,0,1,1,4.2,8.32,8.32,0,0,1-1,4.18,6.65,6.65,0,0,1-2.89,2.71,9.84,9.84,0,0,1-4.46.94h-4.9V129.1h4.9A9.71,9.71,0,0,1,129.81,130.06Zm.19,11.46a6.11,6.11,0,0,0,1.6-4.52,6.27,6.27,0,0,0-1.61-4.58,6.2,6.2,0,0,0-4.64-1.65h-2.84v12.37h2.84A6.26,6.26,0,0,0,130,141.52Z"/><path class="cls-1" d="M151,133.66a4.86,4.86,0,0,0-1.89-2.14,5.48,5.48,0,0,0-2.89-.75,5.9,5.9,0,0,0-3,.75,5.35,5.35,0,0,0-2.07,2.17,6.74,6.74,0,0,0-.76,3.26,6.64,6.64,0,0,0,.76,3.25,5.32,5.32,0,0,0,2.07,2.16,5.9,5.9,0,0,0,3,.75,5.4,5.4,0,0,0,3.79-1.37,5.73,5.73,0,0,0,1.74-3.73H145.5v-1.67H154v1.58a7.85,7.85,0,0,1-1.22,3.56A7.6,7.6,0,0,1,150,144a7.72,7.72,0,0,1-3.77.93,8,8,0,0,1-4-1,7.6,7.6,0,0,1-2.85-2.86,8.13,8.13,0,0,1-1.05-4.13,8.22,8.22,0,0,1,1.05-4.14,7.55,7.55,0,0,1,2.85-2.87,8.45,8.45,0,0,1,8.43.22,7,7,0,0,1,2.81,3.5Z"/><path class="cls-1" d="M161.44,130.77V136h5.73v1.69h-5.73v5.42h6.41v1.69h-8.47V129.08h8.47v1.69Z"/><path class="cls-1" d="M192.09,129.1v1.67H187.8v14.06h-2.05V130.77h-4.32V129.1Z"/><path class="cls-1" d="M209.44,129.1v15.73h-2.05V137.7h-8v7.13h-2.06V129.1h2.06V136h8v-6.9Z"/><path class="cls-1" d="M217.7,130.77V136h5.74v1.69H217.7v5.42h6.41v1.69h-8.46V129.08h8.46v1.69Z"/><path class="cls-1" d="M250.59,133.66a5,5,0,0,0-1.9-2.14,5.48,5.48,0,0,0-2.89-.75,5.9,5.9,0,0,0-3,.75,5.35,5.35,0,0,0-2.07,2.17A6.74,6.74,0,0,0,240,137a6.64,6.64,0,0,0,.76,3.25,5.32,5.32,0,0,0,2.07,2.16,5.9,5.9,0,0,0,3,.75,5.38,5.38,0,0,0,3.79-1.37,5.64,5.64,0,0,0,1.74-3.73h-6.27v-1.67h8.46v1.58a7.85,7.85,0,0,1-1.22,3.56,7.6,7.6,0,0,1-2.73,2.55,7.69,7.69,0,0,1-3.77.93,8,8,0,0,1-4-1,7.55,7.55,0,0,1-2.86-2.86,8.13,8.13,0,0,1-1-4.13,8.22,8.22,0,0,1,1-4.14,7.51,7.51,0,0,1,2.86-2.87,8.45,8.45,0,0,1,8.43.22,7.15,7.15,0,0,1,2.81,3.5Z"/><path class="cls-1" d="M268.24,141.33h-6.87l-1.26,3.5h-2.17l5.69-15.64H266l5.67,15.64H269.5Zm-.59-1.67-2.85-7.94L262,139.66Z"/><path class="cls-1" d="M286,137a5.66,5.66,0,0,1-4.09,1.3h-3v6.57h-2.05V129.1h5.08a5.8,5.8,0,0,1,4.05,1.28,4.66,4.66,0,0,1,0,6.58Zm-1.57-1.14a2.73,2.73,0,0,0,.82-2.12c0-1.94-1.12-2.91-3.34-2.91h-3v5.78h3A3.61,3.61,0,0,0,284.46,135.82Z"/><line class="cls-4" x1="310.01" y1="123.79" x2="310.01" y2="123.79"/><path class="cls-5" d="M319,128.45c13.94,6.42,43.41,17.11,84.17,16.51,55.32-.81,67.52-6.62,98.28-20.37"/><line class="cls-4" x1="506.11" y1="122.52" x2="506.11" y2="122.52"/><path class="cls-1" d="M410.13,65V59.15h-32.3q0-15-5.24-25.41c-2-4.11-4-7-6-8.85h-9.93a38.31,38.31,0,0,0,3.67,5.53,45.51,45.51,0,0,1,3.77,5.42q5.08,9.28,5.09,23.31H363.3V65h6.21V109.4l8.52,3.78v-7.8c.41-6.92,4.76-10.2,5.65-11.23l.14.16L406,113.18l-.09-9.51-15.39-14,13-11-.09-9.47S378.3,89.59,378,90.46V65Z"/></g></g></svg>